<?xml version="1.0" encoding="utf-8"?>
<!DOCTYPE svg PUBLIC "-//W3C//DTD SVG 1.1//EN" "http://www.w3.org/Graphics/SVG/1.1/DTD/svg11.dtd">
<svg xmlns="http://www.w3.org/2000/svg" xmlns:xlink="http://www.w3.org/1999/xlink" version="1.1" baseProfile="full" width="124.667" height="128" viewBox="0 0 124.67 128.00" enable-background="new 0 0 124.67 128.00" xml:space="preserve">
	<g>
		<g>
			<path fill="#FFFFFF" fill-opacity="0.701961" stroke-width="0.2" stroke-linejoin="round" d="M 71.2705,91.4472L 53.3207,91.4472L 53.3207,78.4973L 48.0134,78.4973L 62.2956,53.7596L 76.5779,78.4973L 71.2705,78.4973L 71.2705,91.4472 Z "/>
			<path fill="#FFFFFF" fill-opacity="1" stroke-width="0.2" stroke-linejoin="round" d="M 88.1138,39.3893C 79.8085,24.8825 61.3159,19.8551 46.809,28.1604C 43.4006,30.1118 40.5154,32.6255 38.2035,35.5179L 48.6253,53.7216C 49.8965,42.4039 59.8161,41.099 59.8161,41.099L 89.0917,41.2406L 88.1138,39.3893 Z "/>
			<path fill="#FFFFFF" fill-opacity="1" stroke-width="0.2" stroke-linejoin="round" d="M 51.745,62.9851L 37.0513,37.6637L 35.9494,39.444C 28.0501,53.2338 32.2008,70.6295 45.0932,79.4506L 53.5811,64.7491C 52.3778,63.798 51.745,62.9851 51.745,62.9851 Z "/>
			<path fill="#FFFFFF" fill-opacity="1" stroke-width="0.2" stroke-linejoin="round" d="M 92.434,54.1641C 92.434,50.2366 91.6859,46.4838 90.3244,43.0404L 69.3485,43.0404C 78.5389,49.7668 74.7429,59.0237 74.7429,59.0237L 71.2189,65.1105L 79.3046,79.1153C 87.2348,73.6581 92.434,64.5183 92.434,54.1641 Z "/>
			<path fill="#FFFFFF" fill-opacity="0.701961" stroke-width="0.2" stroke-linejoin="round" d="M 54.8712,62.5144L 62.2957,49.655L 69.6322,62.3623C 71.8581,60.3343 73.2549,57.412 73.2549,54.1637C 73.2549,48.0397 68.2904,43.0752 62.1665,43.0752C 56.0426,43.0752 51.0781,48.0397 51.0781,54.1637C 51.0781,57.4943 52.5465,60.4819 54.8712,62.5144 Z "/>
		</g>
		<path fill="#FFFFFF" fill-opacity="1" fill-rule="evenodd" stroke-width="0.2" stroke-linejoin="round" d="M 81.8321,101.471L 81.7167,94.798L 83.8223,94.798L 83.8223,103.213L 80.795,103.213L 78.6941,96.308L 78.6471,96.308L 78.7647,103.213L 76.6758,103.213L 76.6758,94.798L 79.8305,94.798L 81.7862,101.471L 81.8321,101.471 Z M 43.575,95.5828L 42.4114,103.3L 40.1141,103.3L 41.6894,94.7986L 45.4737,94.7986L 47.0402,103.3L 44.7569,103.3L 43.6225,95.5828L 43.575,95.5828 Z M 53.4857,101.299L 54.5364,94.7983L 58.0025,94.7983L 58.1911,103.3L 56.0631,103.3L 56.0082,95.6546L 55.9622,95.6567L 54.5421,103.3L 52.3864,103.3L 50.9648,95.6546L 50.9172,95.6546L 50.8634,103.3L 48.738,103.3L 48.926,94.7983L 52.3932,94.7983L 53.4392,101.299L 53.4857,101.299 Z M 36.5358,100.9C 36.6194,101.105 36.5917,101.37 36.5525,101.531C 36.483,101.808 36.2918,102.097 35.7249,102.097C 35.1941,102.097 34.8696,101.793 34.8696,101.33L 34.8681,100.505L 32.588,100.505L 32.588,101.163C 32.588,103.058 34.0807,103.629 35.6769,103.629C 37.2176,103.629 38.4805,103.106 38.6837,101.688C 38.7877,100.953 38.7109,100.471 38.6754,100.291C 38.3148,98.5101 35.0891,97.9829 34.8482,96.9845C 34.8075,96.8105 34.8169,96.6376 34.8383,96.5403C 34.8999,96.2671 35.0844,95.9693 35.6157,95.9693C 36.1147,95.9693 36.4057,96.2765 36.4057,96.7389L 36.4057,97.2635L 38.528,97.2635L 38.528,96.6689C 38.528,94.8162 36.8645,94.5267 35.6607,94.5267C 34.1491,94.5267 32.9156,95.0278 32.6883,96.4155C 32.6272,96.7901 32.6183,97.1302 32.7097,97.5597C 33.0775,99.2969 36.098,99.8006 36.5358,100.9 Z M 64.1786,100.883C 64.258,101.087 64.234,101.348 64.1948,101.508C 64.1264,101.788 63.9352,102.068 63.374,102.068C 62.8463,102.068 62.5281,101.77 62.5281,101.309L 62.5271,100.492L 60.2689,100.492L 60.2674,101.142C 60.2674,103.021 61.746,103.583 63.3285,103.583C 64.8511,103.583 66.1029,103.068 66.3025,101.663C 66.406,100.936 66.3297,100.459 66.2941,100.279C 65.9378,98.5168 62.7434,97.9938 62.5077,97.0058C 62.4659,96.8355 62.4774,96.6641 62.4968,96.569C 62.5574,96.2973 62.7392,96.0021 63.2658,96.0021C 63.7596,96.0021 64.048,96.3062 64.048,96.7608L 64.048,97.2817L 66.1489,97.2817L 66.1489,96.6949C 66.1489,94.861 64.501,94.5752 63.3118,94.5752C 61.8144,94.5752 60.5918,95.0648 60.3687,96.442C 60.3065,96.814 60.2971,97.151 60.3875,97.5753C 60.7533,99.2969 63.7439,99.7958 64.1786,100.883 Z M 71.3142,102.022C 71.9046,102.022 72.0881,101.621 72.1304,101.409C 72.1487,101.317 72.1518,101.194 72.1507,101.084L 72.1507,94.7969L 74.3065,94.7969L 74.3065,100.89C 74.3081,101.047 74.2918,101.368 74.283,101.452C 74.1346,103.037 72.878,103.549 71.3142,103.549C 69.7515,103.549 68.4955,103.037 68.3487,101.452C 68.3419,101.368 68.3246,101.047 68.3283,100.89L 68.3283,94.7969L 70.4778,94.7969L 70.4778,101.084C 70.4762,101.194 70.4804,101.317 70.4981,101.409C 70.541,101.621 70.7244,102.022 71.3142,102.022 Z M 89.0519,101.935C 89.6664,101.935 89.8816,101.548 89.9213,101.321C 89.9375,101.224 89.9438,101.105 89.9407,100.997L 89.9407,99.7646L 89.0702,99.7646L 89.0702,98.5211L 92.0787,98.5211L 92.0787,100.802C 92.0776,100.962 92.0755,101.08 92.052,101.363C 91.9104,102.91 90.5656,103.464 89.0603,103.464C 87.5535,103.464 86.2102,102.91 86.0707,101.363C 86.0461,101.08 86.0419,100.962 86.0409,100.802L 86.0419,97.2254C 86.0419,97.0723 86.0602,96.8053 86.078,96.6689C 86.2666,95.0738 87.5535,94.5675 89.0613,94.5675C 90.5676,94.5675 91.89,95.0696 92.0468,96.6689C 92.0713,96.9338 92.0624,97.2254 92.0635,97.2254L 92.0635,97.508L 89.9213,97.508L 89.9213,97.0304C 89.9213,97.0304 89.9192,96.8288 89.8937,96.7107C 89.855,96.5237 89.6941,96.0916 89.0436,96.0916C 88.4271,96.0916 88.2442,96.5007 88.1972,96.7107C 88.1726,96.8183 88.1627,96.9698 88.1627,97.1088L 88.1627,100.997C 88.1616,101.105 88.1669,101.224 88.182,101.321C 88.2228,101.548 88.437,101.935 89.0519,101.935 Z "/>
	</g>
</svg>
