<?xml version="1.0" encoding="utf-8"?>
<!DOCTYPE svg PUBLIC "-//W3C//DTD SVG 1.1//EN" "http://www.w3.org/Graphics/SVG/1.1/DTD/svg11.dtd">
<svg xmlns="http://www.w3.org/2000/svg" xmlns:xlink="http://www.w3.org/1999/xlink" version="1.1" baseProfile="full" width="128" height="128" viewBox="0 0 128.00 128.00" enable-background="new 0 0 128.00 128.00" xml:space="preserve">
	<g>
		<path fill="#FFFFFF" fill-opacity="0.701961" stroke-width="0.2" stroke-linejoin="round" d="M 53.8871,95.8724C 53.8871,88.7444 53.8871,81.6163 53.9079,78.1996C 53.9287,74.783 53.9704,75.0777 51.8662,73.5167C 49.7621,71.9557 45.5121,68.5391 41.6787,63.4141C 37.8454,58.2891 34.4287,51.4557 32.3454,46.5807C 30.2621,41.7057 29.5121,38.7891 29.7204,36.6016C 29.9287,34.4141 31.0954,32.9557 32.6579,32.3516C 34.2204,31.7474 36.1787,31.9974 37.9287,33.4349C 39.6787,34.8724 41.2204,37.4974 42.8454,40.5599C 44.4704,43.6224 46.1787,47.1224 48.6787,50.4349C 51.1787,53.7474 54.4704,56.8724 58.1579,58.8516C 61.8454,60.8308 65.9287,61.6641 70.3871,62.2682C 74.8454,62.8724 79.6787,63.2474 83.2829,64.0391C 86.8871,64.8307 89.2621,66.0391 91.2621,67.9141C 93.2621,69.7891 94.8871,72.3307 95.9912,75.4141C 97.0954,78.4974 97.6787,82.1224 97.9696,85.6224C 98.2604,89.1224 98.2587,92.4974 98.2656,94.1849L 98.2795,95.8724L 96.1537,95.8724C 94.0695,95.8724 89.9341,95.8724 85.7986,95.8724C 85.7864,92.1224 85.7743,88.3724 85.4878,86.4462C 85.2013,84.52 84.6405,84.4176 84.1822,84.6051C 83.7238,84.7926 83.368,85.27 83.2221,87.1962C 83.0763,89.1224 83.1406,92.4974 83.2049,95.8724L 53.8871,95.8724 Z "/>
		<ellipse fill="#FFFFFF" fill-opacity="1" stroke-linejoin="round" cx="73.9704" cy="46.6849" rx="12.8125" ry="12.8125"/>
	</g>
</svg>
