<?xml version="1.0" encoding="utf-8"?>
<!DOCTYPE svg PUBLIC "-//W3C//DTD SVG 1.1//EN" "http://www.w3.org/Graphics/SVG/1.1/DTD/svg11.dtd">
<svg xmlns="http://www.w3.org/2000/svg" xmlns:xlink="http://www.w3.org/1999/xlink" version="1.1" baseProfile="full" width="128" height="128" viewBox="0 0 128.00 128.00" enable-background="new 0 0 128.00 128.00" xml:space="preserve">
	<g>
		<g>
			<path fill="#FFFFFF" fill-opacity="0.701961" stroke-width="0.2" stroke-linejoin="round" d="M 40.5658,41.7481C 40.5658,38.0629 42.2795,34.778 44.9534,32.6466L 40.6617,28.3549C 40.3429,28.0361 40.3428,27.5194 40.6617,27.2007C 40.9803,26.8819 41.4971,26.8818 41.816,27.2007L 46.3221,31.7068C 48.0466,30.6954 50.0547,30.1156 52.1983,30.1156C 54.4534,30.1156 56.5586,30.7573 58.3413,31.8681L 63.0087,27.2007C 63.3275,26.8819 63.8444,26.8819 64.1631,27.2007C 64.4819,27.5194 64.4818,28.0362 64.163,28.3549L 59.6786,32.8394C 62.2173,34.9732 63.8308,38.1722 63.8308,41.7481C 63.8308,42.7301 63.7091,43.6837 63.48,44.5946C 60.3696,42.8204 56.7693,41.8067 52.9321,41.8067C 48.5712,41.8067 44.5161,43.1161 41.1385,45.3631C 40.7668,44.2252 40.5658,43.0101 40.5658,41.7481 Z "/>
			<path fill="#FFFFFF" fill-opacity="0.701961" stroke-width="0.2" stroke-linejoin="round" d="M 62.7831,61.9489C 63.6819,61.9489 64.5093,61.643 65.1668,61.1297L 61.2039,68.0543C 60.7365,67.8546 60.2219,67.744 59.6815,67.744C 57.5402,67.744 55.8044,69.4799 55.8044,71.6211C 55.8044,72.8996 56.4233,74.0336 57.3777,74.7398L 53.7538,81.0722L 53.7014,43.6711C 58.8129,43.8694 63.4387,45.9607 66.8973,49.2637L 72.149,44.0121C 72.9344,43.2267 74.1915,43.2 75.0089,43.9323L 70.8497,51.1998L 69.6066,52.4429L 69.8934,52.8708L 66.6275,58.5774L 66.6602,58.0718C 66.6602,55.9306 64.9243,54.1947 62.7831,54.1947C 60.6418,54.1947 58.9061,55.9306 58.9061,58.0718C 58.9061,60.213 60.6418,61.9489 62.7831,61.9489 Z "/>
			<path fill="#FFFFFF" fill-opacity="1" fill-rule="evenodd" stroke-width="0.2" stroke-linejoin="round" d="M 86.1746,98.345L 86.0433,90.7568L 88.4378,90.7568L 88.4378,100.327L 84.9951,100.327L 82.606,92.474L 82.5525,92.474L 82.6862,100.327L 80.3107,100.327L 80.3107,90.7568L 83.8983,90.7568L 86.1223,98.345L 86.1746,98.345 Z M 42.6675,91.6493L 41.3444,100.426L 38.7318,100.426L 40.5232,90.7574L 44.8268,90.7574L 46.6083,100.426L 44.0116,100.426L 42.7216,91.6493L 42.6675,91.6493 Z M 53.9383,98.1498L 55.1332,90.757L 59.0749,90.757L 59.2894,100.425L 56.8693,100.425L 56.8069,91.7309L 56.7547,91.7333L 55.1397,100.425L 52.6882,100.425L 51.0714,91.7309L 51.0173,91.7309L 50.9561,100.425L 48.539,100.425L 48.7529,90.757L 52.6959,90.757L 53.8854,98.1498L 53.9383,98.1498 Z M 34.6624,97.696C 34.7575,97.9295 34.726,98.2307 34.6815,98.4132C 34.6024,98.7287 34.3849,99.0578 33.7403,99.0578C 33.1366,99.0578 32.7676,98.712 32.7676,98.1856L 32.7658,97.2468L 30.1729,97.2468L 30.1729,97.9949C 30.1729,100.151 31.8704,100.799 33.6856,100.799C 35.4378,100.799 36.874,100.205 37.1051,98.5926C 37.2233,97.756 37.136,97.2082 37.0956,97.0038C 36.6856,94.9783 33.0172,94.3787 32.7432,93.2433C 32.6969,93.0454 32.7076,92.8488 32.732,92.7382C 32.8021,92.4275 33.0118,92.0887 33.6161,92.0887C 34.1835,92.0887 34.5145,92.4381 34.5145,92.964L 34.5145,93.5605L 36.928,93.5605L 36.928,92.8844C 36.928,90.7774 35.0362,90.4482 33.6672,90.4482C 31.9482,90.4482 30.5454,91.0181 30.2869,92.5962C 30.2175,93.0222 30.2073,93.4091 30.3113,93.8974C 30.7296,95.8731 34.1645,96.4458 34.6624,97.696 Z M 66.0986,97.6769C 66.1888,97.9086 66.1615,98.2057 66.117,98.3875C 66.0391,98.706 65.8217,99.0244 65.1835,99.0244C 64.5834,99.0244 64.2216,98.6852 64.2216,98.1617L 64.2203,97.2318L 61.6523,97.2318L 61.6506,97.971C 61.6506,100.108 63.3321,100.747 65.1318,100.747C 66.8632,100.747 68.2869,100.162 68.5139,98.564C 68.6315,97.7368 68.5447,97.1944 68.5043,96.9894C 68.0991,94.9859 64.4664,94.3911 64.1984,93.2675C 64.1508,93.0738 64.1639,92.8789 64.1859,92.7708C 64.2548,92.4618 64.4616,92.1261 65.0605,92.1261C 65.622,92.1261 65.95,92.4719 65.95,92.9889L 65.95,93.5812L 68.3392,93.5812L 68.3392,92.9139C 68.3392,90.8284 66.4651,90.5034 65.1128,90.5034C 63.4099,90.5034 62.0195,91.0602 61.7658,92.6264C 61.6951,93.0494 61.6844,93.4327 61.7872,93.9152C 62.2031,95.873 65.6042,96.4404 66.0986,97.6769 Z M 74.2133,98.9723C 74.8848,98.9723 75.0933,98.516 75.1415,98.2754C 75.1623,98.1707 75.1658,98.0305 75.1646,97.9058L 75.1646,90.7555L 77.6162,90.7555L 77.6162,97.6847C 77.618,97.8635 77.5995,98.2278 77.5894,98.3235C 77.4207,100.126 75.9918,100.709 74.2133,100.709C 72.4362,100.709 71.0078,100.126 70.8408,98.3235C 70.8331,98.2278 70.8135,97.8635 70.8177,97.6847L 70.8177,90.7555L 73.2621,90.7555L 73.2621,97.9058C 73.2603,98.0305 73.2651,98.1707 73.2853,98.2754C 73.334,98.516 73.5425,98.9723 74.2133,98.9723 Z M 94.3851,98.8737C 95.0839,98.8737 95.3287,98.4328 95.3738,98.1749C 95.3922,98.065 95.3994,97.9295 95.3958,97.8065L 95.3958,96.4049L 94.4059,96.4049L 94.4059,94.9907L 97.8271,94.9907L 97.8271,97.5849C 97.826,97.7661 97.8236,97.9004 97.7968,98.223C 97.6358,99.9824 96.1064,100.612 94.3946,100.612C 92.681,100.612 91.1534,99.9824 90.9948,98.223C 90.9668,97.9004 90.9621,97.7661 90.9609,97.5849L 90.9621,93.5172C 90.9621,93.343 90.9828,93.0395 91.0031,92.8844C 91.2176,91.0703 92.681,90.4946 94.3958,90.4946C 96.1088,90.4946 97.6126,91.0656 97.7909,92.8844C 97.8188,93.1856 97.8088,93.5172 97.8099,93.5172L 97.8099,93.8386L 95.3738,93.8386L 95.3738,93.2955C 95.3738,93.2955 95.3714,93.0662 95.3423,92.9319C 95.2983,92.7192 95.1153,92.2278 94.3755,92.2278C 93.6745,92.2278 93.4665,92.693 93.413,92.9319C 93.3851,93.0543 93.3738,93.2267 93.3738,93.3847L 93.3738,97.8065C 93.3726,97.9295 93.3786,98.065 93.3958,98.1749C 93.4421,98.4328 93.6857,98.8737 94.3851,98.8737 Z "/>
		</g>
		<path fill="#FFFFFF" fill-opacity="1" stroke-linejoin="round" d="M 62.5262,68.9866L 58.8221,75.4024L 53.7583,84.173L 52.7534,85.9137L 69.0615,85.9137L 71.5092,85.9137L 103.564,85.9137L 78.1589,41.91L 70.8693,54.536L 62.5262,68.9866 Z M 77.0337,73.0959L 76.9165,66.8465L 76.8384,62.6828L 76.7376,57.3071L 79.5796,57.3071L 79.472,62.6908L 79.389,66.844L 79.2639,73.0959L 77.0337,73.0959 Z M 79.3798,76.7642C 79.7235,77.1046 79.8954,77.5167 79.8954,78.0002C 79.8954,78.4805 79.7235,78.8883 79.3798,79.2238C 79.0361,79.5593 78.629,79.7271 78.1586,79.7271C 77.6784,79.7271 77.2689,79.5593 76.9301,79.2238C 76.5912,78.8883 76.4219,78.4805 76.4219,78.0002C 76.4219,77.5167 76.5912,77.1046 76.9301,76.7642C 77.2689,76.4238 77.6784,76.2536 78.1586,76.2536C 78.629,76.2536 79.0361,76.4238 79.3798,76.7642 Z "/>
		<path fill="#FFFFFF" fill-opacity="0.701961" stroke-width="0.2" stroke-linejoin="round" d="M 41.8124,80.8798C 44.7869,82.826 48.3074,84.0153 52.1021,84.1729L 52.1021,43.6711C 46.9905,43.8694 42.3648,45.9607 38.9061,49.2637L 33.6546,44.0122C 32.8416,43.1992 31.5234,43.1992 30.7104,44.0122C 29.8973,44.8252 29.8973,46.1434 30.7104,46.9564L 36.1968,52.4428C 34.1693,55.3875 32.9001,58.8947 32.6714,62.6827L 26.5175,62.6827C 25.3677,62.6827 24.4355,63.6148 24.4355,64.7646C 24.4355,65.9143 25.3677,66.8465 26.5175,66.8465L 32.8433,66.8465C 33.482,71.2662 35.5479,75.2246 38.5638,78.24L 34.0465,82.7573C 33.2335,83.5703 33.2335,84.8885 34.0465,85.7014C 34.8596,86.5145 36.1777,86.5145 36.9907,85.7015L 41.8124,80.8798 Z M 45.7239,64.3977C 45.7239,66.5389 43.9881,68.2747 41.8469,68.2747C 39.7056,68.2747 37.9698,66.5389 37.9698,64.3977C 37.9698,62.2565 39.7056,60.5206 41.8469,60.5206C 43.988,60.5206 45.7239,62.2565 45.7239,64.3977 Z "/>
	</g>
</svg>
