<?xml version="1.0" encoding="utf-8"?>
<!DOCTYPE svg PUBLIC "-//W3C//DTD SVG 1.1//EN" "http://www.w3.org/Graphics/SVG/1.1/DTD/svg11.dtd">
<svg xmlns="http://www.w3.org/2000/svg" xmlns:xlink="http://www.w3.org/1999/xlink" version="1.1" baseProfile="full" width="128" height="128" viewBox="0 0 128.00 128.00" enable-background="new 0 0 128.00 128.00" xml:space="preserve">
	<g>
		<path fill="#FFFFFF" fill-opacity="1" fill-rule="evenodd" stroke-width="0.2" stroke-linejoin="round" d="M 84.6555,99.9207L 84.5332,92.8523L 86.7637,92.8523L 86.7637,101.767L 83.5568,101.767L 81.3314,94.4518L 81.2816,94.4518L 81.4061,101.767L 79.1933,101.767L 79.1933,92.8523L 82.5352,92.8523L 84.6068,99.9207L 84.6555,99.9207 Z M 44.1288,93.6836L 42.8963,101.859L 40.4626,101.859L 42.1314,92.8528L 46.1402,92.8528L 47.7996,101.859L 45.3808,101.859L 44.1792,93.6836L 44.1288,93.6836 Z M 54.6275,99.7388L 55.7405,92.8525L 59.4123,92.8525L 59.6121,101.859L 57.3577,101.859L 57.2996,93.7596L 57.2509,93.7619L 55.7466,101.859L 53.463,101.859L 51.957,93.7596L 51.9066,93.7596L 51.8496,101.859L 49.5981,101.859L 49.7973,92.8525L 53.4702,92.8525L 54.5782,99.7388L 54.6275,99.7388 Z M 36.6721,99.3162C 36.7607,99.5336 36.7313,99.8143 36.6898,99.9842C 36.6161,100.278 36.4136,100.585 35.8131,100.585C 35.2508,100.585 34.907,100.263 34.907,99.7722L 34.9054,98.8977L 32.4901,98.8977L 32.4901,99.5945C 32.4901,101.603 34.0714,102.207 35.7621,102.207C 37.3943,102.207 38.7321,101.653 38.9474,100.151C 39.0576,99.3721 38.9762,98.8618 38.9385,98.6713C 38.5566,96.7845 35.1395,96.2261 34.8843,95.1685C 34.8412,94.9841 34.8511,94.801 34.8738,94.698C 34.9391,94.4085 35.1345,94.093 35.6974,94.093C 36.226,94.093 36.5342,94.4185 36.5342,94.9083L 36.5342,95.464L 38.7825,95.464L 38.7825,94.8342C 38.7825,92.8715 37.0202,92.5649 35.7451,92.5649C 34.1439,92.5649 32.8371,93.0956 32.5963,94.5657C 32.5316,94.9625 32.5222,95.3229 32.619,95.7778C 33.0087,97.6181 36.2083,98.1516 36.6721,99.3162 Z M 65.9548,99.2983C 66.0389,99.5142 66.0134,99.7909 65.9719,99.9603C 65.8994,100.257 65.6968,100.554 65.1024,100.554C 64.5434,100.554 64.2064,100.238 64.2064,99.7499L 64.2052,98.8838L 61.8131,98.8838L 61.8115,99.5723C 61.8115,101.563 63.3777,102.158 65.0543,102.158C 66.6671,102.158 67.9932,101.613 68.2046,100.125C 68.3141,99.3542 68.2334,98.8489 68.1957,98.658C 67.8183,96.7917 64.4343,96.2376 64.1848,95.191C 64.1404,95.0106 64.1526,94.829 64.1731,94.7283C 64.2373,94.4405 64.4299,94.1278 64.9879,94.1278C 65.5109,94.1278 65.8163,94.4499 65.8163,94.9315L 65.8163,95.4833L 68.0419,95.4833L 68.0419,94.8617C 68.0419,92.919 66.2962,92.6163 65.0366,92.6163C 63.4503,92.6163 62.1552,93.1348 61.9188,94.5938C 61.853,94.9879 61.843,95.3449 61.9387,95.7943C 62.3262,97.618 65.4943,98.1465 65.9548,99.2983 Z M 73.5137,100.505C 74.1391,100.505 74.3334,100.08 74.3782,99.8558C 74.3976,99.7584 74.4009,99.6277 74.3998,99.5115L 74.3998,92.8511L 76.6834,92.8511L 76.6834,99.3056C 76.6851,99.4722 76.6679,99.8115 76.6585,99.9006C 76.5013,101.58 75.1702,102.123 73.5137,102.123C 71.8582,102.123 70.5276,101.58 70.3721,99.9006C 70.3649,99.8115 70.3467,99.4722 70.3506,99.3056L 70.3506,92.8511L 72.6276,92.8511L 72.6276,99.5115C 72.6259,99.6277 72.6303,99.7584 72.6492,99.8558C 72.6945,100.08 72.8888,100.505 73.5137,100.505 Z M 92.3036,100.413C 92.9545,100.413 93.1825,100.002 93.2245,99.7623C 93.2418,99.6599 93.2484,99.5336 93.2451,99.4191L 93.2451,98.1135L 92.3229,98.1135L 92.3229,96.7962L 95.5098,96.7962L 95.5098,99.2126C 95.5087,99.3815 95.5065,99.5065 95.4816,99.8071C 95.3316,101.446 93.907,102.033 92.3124,102.033C 90.7162,102.033 89.2933,101.446 89.1454,99.8071C 89.1194,99.5065 89.1151,99.3815 89.114,99.2126L 89.1151,95.4236C 89.1151,95.2614 89.1344,94.9786 89.1533,94.8342C 89.353,93.1443 90.7162,92.608 92.3135,92.608C 93.9092,92.608 95.3101,93.14 95.4761,94.8342C 95.5021,95.1147 95.4927,95.4236 95.4938,95.4236L 95.4938,95.723L 93.2245,95.723L 93.2245,95.2171C 93.2245,95.2171 93.2224,95.0035 93.1953,94.8784C 93.1543,94.6803 92.9838,94.2225 92.2947,94.2225C 91.6417,94.2225 91.4479,94.6559 91.3981,94.8784C 91.3721,94.9924 91.3616,95.153 91.3616,95.3002L 91.3616,99.4191C 91.3605,99.5336 91.366,99.6599 91.3821,99.7623C 91.4252,100.002 91.6522,100.413 92.3036,100.413 Z "/>
		<path fill="#FFFFFF" fill-opacity="1" stroke-width="0.2" stroke-linejoin="round" d="M 28.1681,87.8558L 99.8319,87.8558L 64.0001,25.7931L 28.1681,87.8558 Z M 56.5635,62.1082C 58.4013,60.3533 60.8589,59.2421 63.5748,59.1367L 63.5748,80.6559C 61.5587,80.5722 59.6881,79.9403 58.1077,78.9063L 55.546,81.4681C 55.114,81.9 54.4136,81.9 53.9816,81.4681C 53.5496,81.0361 53.5496,80.3357 53.9816,79.9038L 56.3817,77.5037C 54.7793,75.9016 53.6817,73.7984 53.3423,71.4501L 49.9813,71.4501C 49.3704,71.4501 48.8752,70.9549 48.8752,70.3441C 48.8752,69.7331 49.3704,69.2379 49.9813,69.2379L 53.251,69.2379C 53.3725,67.2253 54.0468,65.3618 55.1241,63.7973L 52.209,60.8822C 51.7771,60.4503 51.7771,59.7499 52.2091,59.318C 52.6411,58.886 53.3414,58.886 53.7734,59.318L 56.5635,62.1082 Z M 74.657,71.4501C 74.3177,73.7994 73.2198,75.9034 71.6199,77.5057L 74.0179,79.9038C 74.4499,80.3357 74.4499,81.0361 74.0179,81.4681C 73.5859,81.9 72.8856,81.9 72.4536,81.4681L 69.8953,78.9097C 68.3123,79.9473 66.4395,80.5792 64.4245,80.6572L 64.4245,59.1367C 67.1403,59.2421 69.5981,60.3533 71.4357,62.1082L 74.226,59.318C 74.6579,58.886 75.3583,58.886 75.7903,59.318C 76.2223,59.75 76.2223,60.4503 75.7903,60.8822L 72.8752,63.7973C 73.9525,65.3618 74.6268,67.2253 74.7484,69.2379L 78.0182,69.2379C 78.6292,69.2379 79.1245,69.7331 79.1245,70.3441C 79.1245,70.9548 78.6292,71.4501 78.0182,71.4501L 74.657,71.4501 Z M 69.6201,59.6274C 67.9675,58.6848 66.0545,58.1462 64.0158,58.1462C 61.6987,58.1462 59.5443,58.8419 57.7497,60.0358C 57.5522,59.4312 57.4454,58.7856 57.4454,58.1151C 57.4454,56.157 58.3559,54.4117 59.7766,53.2793L 57.4963,50.9991C 57.327,50.8297 57.3269,50.5551 57.4963,50.3858C 57.6656,50.2164 57.9402,50.2164 58.1096,50.3858L 60.5038,52.78C 61.42,52.2426 62.487,51.9345 63.6259,51.9345C 64.824,51.9345 65.9426,52.2755 66.8898,52.8657L 69.3697,50.3858C 69.539,50.2164 69.8136,50.2164 69.983,50.3858C 70.1523,50.5551 70.1523,50.8297 69.983,50.9991L 67.6003,53.3817C 68.9492,54.5154 69.8065,56.2152 69.8065,58.1151C 69.8065,58.6368 69.7418,59.1434 69.6201,59.6274 Z "/>
		<path fill="#FFFFFF" fill-opacity="0.701961" stroke-width="0.2" stroke-linejoin="round" d="M 67.6019,71.9269C 66.4642,71.9269 65.542,72.8492 65.542,73.9869C 65.542,75.1246 66.4642,76.0469 67.6019,76.0469C 68.7396,76.0469 69.6619,75.1246 69.6619,73.9869C 69.6619,72.8492 68.7396,71.9269 67.6019,71.9269 Z "/>
		<path fill="#FFFFFF" fill-opacity="0.701961" stroke-width="0.2" stroke-linejoin="round" d="M 69.2498,64.728C 68.1121,64.728 67.1899,65.6504 67.1899,66.788C 67.1899,67.9257 68.1121,68.848 69.2498,68.848C 70.3875,68.848 71.3098,67.9257 71.3098,66.788C 71.3098,65.6504 70.3875,64.728 69.2498,64.728 Z "/>
		<path fill="#FFFFFF" fill-opacity="0.701961" stroke-width="0.2" stroke-linejoin="round" d="M 58.1262,68.0889C 56.9886,68.0889 56.0662,69.0112 56.0662,70.1489C 56.0662,71.2866 56.9886,72.2088 58.1262,72.2088C 59.2639,72.2088 60.1862,71.2866 60.1862,70.1489C 60.1862,69.0112 59.2639,68.0889 58.1262,68.0889 Z "/>
	</g>
</svg>
