<?xml version="1.0" encoding="utf-8"?>
<!DOCTYPE svg PUBLIC "-//W3C//DTD SVG 1.1//EN" "http://www.w3.org/Graphics/SVG/1.1/DTD/svg11.dtd">
<svg xmlns="http://www.w3.org/2000/svg" xmlns:xlink="http://www.w3.org/1999/xlink" version="1.1" baseProfile="full" width="128" height="128" viewBox="0 0 128.00 128.00" enable-background="new 0 0 128.00 128.00" xml:space="preserve">
	<g>
		<g>
			<path fill="#FFFFFF" fill-opacity="0.701961" stroke-width="0.2" stroke-linejoin="round" d="M 85.729,36.1359C 82.8728,36.2466 80.2882,37.4153 78.3555,39.2608L 75.4211,36.3264C 74.9669,35.8722 74.2303,35.8722 73.7761,36.3264C 73.3217,36.7807 73.3217,37.5173 73.776,37.9716L 76.8416,41.0372C 75.7087,42.6826 74.9996,44.6423 74.8718,46.7589L 71.4332,46.7589C 70.7907,46.7589 70.2699,47.2798 70.2699,47.9221C 70.2699,48.5646 70.7907,49.0854 71.4332,49.0854L 74.9679,49.0854C 75.3247,51.5551 76.4791,53.7668 78.1643,55.4517L 75.6402,57.9759C 75.1859,58.4301 75.1859,59.1667 75.6402,59.6209C 76.0945,60.0753 76.831,60.0753 77.2853,59.621L 79.9795,56.9268C 81.6415,58.0143 83.6087,58.6788 85.729,58.7669L 85.729,36.1359 Z M 77.8325,47.7171C 77.8325,46.5206 78.8025,45.5506 79.9988,45.5506C 81.1952,45.5506 82.1653,46.5206 82.1653,47.7171C 82.1653,48.9135 81.1953,49.8834 79.9988,49.8834C 78.8025,49.8834 77.8325,48.9135 77.8325,47.7171 Z "/>
			<path fill="#FFFFFF" fill-opacity="0.701961" stroke-width="0.2" stroke-linejoin="round" d="M 94.1897,55.454C 95.8723,53.7688 97.0269,51.5562 97.3838,49.0854L 100.919,49.0854C 101.561,49.0854 102.082,48.5645 102.082,47.9221C 102.082,47.2797 101.561,46.7589 100.919,46.7589L 97.4798,46.7589C 97.352,44.6423 96.6429,42.6826 95.5099,41.0372L 98.5756,37.9716C 99.0299,37.5173 99.0299,36.7808 98.5756,36.3264C 98.1213,35.8722 97.3847,35.8722 96.9305,36.3264L 93.9961,39.2608C 92.0634,37.4153 89.4787,36.2467 86.6226,36.1359L 86.6226,58.7683C 88.7416,58.6861 90.7112,58.0216 92.376,56.9304L 95.0665,59.6209C 95.5208,60.0752 96.2573,60.0753 96.7116,59.621C 97.1659,59.1667 97.1659,58.4301 96.7116,57.9759L 94.1897,55.454 Z M 87.7978,51.7533C 87.7978,50.5569 88.7677,49.5869 89.9641,49.5869C 91.1605,49.5869 92.1305,50.5569 92.1305,51.7533C 92.1305,52.9498 91.1606,53.9197 89.9641,53.9197C 88.7677,53.9197 87.7978,52.9498 87.7978,51.7533 Z M 89.5308,44.1825C 89.5308,42.9861 90.5007,42.0161 91.6972,42.0161C 92.8936,42.0161 93.8635,42.9861 93.8635,44.1825C 93.8635,45.379 92.8936,46.3488 91.6972,46.3488C 90.5007,46.3488 89.5308,45.379 89.5308,44.1825 Z "/>
			<path fill="#FFFFFF" fill-opacity="0.701961" stroke-width="0.2" stroke-linejoin="round" d="M 79.6029,37.0814C 81.4901,35.8258 83.756,35.0942 86.1927,35.0942C 88.3368,35.0942 90.3486,35.6606 92.0865,36.6519C 92.2145,36.1429 92.2826,35.6101 92.2826,35.0614C 92.2826,33.0634 91.381,31.2758 89.9625,30.0835L 92.4682,27.5778C 92.6463,27.3997 92.6463,27.1109 92.4682,26.9328C 92.2901,26.7546 92.0013,26.7546 91.8232,26.9328L 89.2152,29.5408C 88.2191,28.9201 87.0428,28.5616 85.7827,28.5616C 84.5849,28.5616 83.4629,28.8856 82.4993,29.4506L 79.9814,26.9328C 79.8033,26.7546 79.5145,26.7546 79.3364,26.9328C 79.1583,27.1109 79.1583,27.3997 79.3364,27.5778L 81.7345,29.9759C 80.2404,31.1667 79.2829,33.0022 79.2829,35.0614C 79.2829,35.7666 79.3952,36.4455 79.6029,37.0814 Z "/>
		</g>
		<g>
			<path fill="#FFFFFF" fill-opacity="0.701961" stroke-width="0.2" stroke-linejoin="round" d="M 81.7596,85.8997C 79.9149,85.9712 78.2457,86.726 76.9975,87.9179L 75.1024,86.0228C 74.809,85.7294 74.3333,85.7294 74.0399,86.0228C 73.7465,86.3162 73.7465,86.7919 74.0399,87.0853L 76.0198,89.0651C 75.2881,90.1277 74.8301,91.3934 74.7476,92.7604L 72.5268,92.7604C 72.1118,92.7604 71.7755,93.0968 71.7755,93.5117C 71.7755,93.9266 72.1118,94.263 72.5268,94.263L 74.8096,94.263C 75.0401,95.858 75.7856,97.2864 76.874,98.3746L 75.2439,100.005C 74.9504,100.298 74.9504,100.774 75.2439,101.067C 75.5372,101.361 76.0129,101.361 76.3063,101.067L 78.0463,99.3272C 79.1197,100.03 80.3902,100.459 81.7596,100.516L 81.7596,85.8997 Z M 76.6597,93.3793C 76.6597,92.6065 77.2862,91.9801 78.0588,91.9801C 78.8315,91.9801 79.4579,92.6065 79.4579,93.3793C 79.4579,94.152 78.8315,94.7783 78.0588,94.7783C 77.2862,94.7783 76.6597,94.152 76.6597,93.3793 Z "/>
			<path fill="#FFFFFF" fill-opacity="0.701961" stroke-width="0.2" stroke-linejoin="round" d="M 87.2238,98.376C 88.3105,97.2877 89.0561,95.8586 89.2866,94.263L 91.5696,94.263C 91.9845,94.263 92.3209,93.9266 92.3209,93.5117C 92.3209,93.0967 91.9845,92.7604 91.5696,92.7604L 89.3486,92.7604C 89.2661,91.3934 88.8081,90.1278 88.0764,89.0651L 90.0564,87.0853C 90.3498,86.7919 90.3498,86.3162 90.0563,86.0228C 89.763,85.7294 89.2872,85.7294 88.9939,86.0228L 87.0987,87.9179C 85.8506,86.726 84.1813,85.9713 82.3367,85.8997L 82.3367,100.517C 83.7052,100.463 84.9773,100.034 86.0524,99.3295L 87.7901,101.067C 88.0835,101.361 88.5591,101.361 88.8525,101.067C 89.1459,100.774 89.1459,100.298 88.8525,100.005L 87.2238,98.376 Z M 83.0956,95.986C 83.0956,95.2133 83.722,94.5869 84.4948,94.5869C 85.2674,94.5869 85.8939,95.2133 85.8939,95.986C 85.8939,96.7587 85.2675,97.3851 84.4948,97.3851C 83.722,97.3851 83.0956,96.7587 83.0956,95.986 Z M 84.2149,91.0965C 84.2149,90.3238 84.8413,89.6973 85.614,89.6973C 86.3867,89.6973 87.0131,90.3238 87.0131,91.0965C 87.0131,91.8692 86.3867,92.4956 85.614,92.4956C 84.8413,92.4956 84.2149,91.8692 84.2149,91.0965 Z "/>
			<path fill="#FFFFFF" fill-opacity="0.701961" stroke-width="0.2" stroke-linejoin="round" d="M 77.8031,86.5103C 79.0219,85.6994 80.4853,85.2269 82.0591,85.2269C 83.4438,85.2269 84.7431,85.5927 85.8655,86.233C 85.9482,85.9042 85.9921,85.5601 85.9921,85.2057C 85.9921,83.9153 85.4098,82.7609 84.4937,81.9908L 86.112,80.3726C 86.227,80.2576 86.227,80.071 86.112,79.956C 85.997,79.8409 85.8105,79.8409 85.6954,79.956L 84.0111,81.6403C 83.3678,81.2395 82.608,81.0079 81.7943,81.0079C 81.0207,81.0079 80.296,81.2172 79.6737,81.5821L 78.0476,79.956C 77.9325,79.8409 77.746,79.8409 77.631,79.956C 77.516,80.071 77.516,80.2576 77.631,80.3726L 79.1798,81.9213C 78.2149,82.6904 77.5964,83.8759 77.5964,85.2057C 77.5964,85.6612 77.6689,86.0997 77.8031,86.5103 Z "/>
		</g>
		<path fill="#FFFFFF" fill-opacity="1" fill-rule="evenodd" stroke-width="0.2" stroke-linejoin="round" d="M 40.8068,52.5396C 40.4724,51.5163 40.2917,50.4236 40.2917,49.2886C 40.2917,45.9746 41.8329,43.0204 44.2374,41.1039L 40.3779,37.2443C 40.0913,36.9577 40.0912,36.4929 40.3779,36.2062C 40.6645,35.9195 41.1293,35.9195 41.416,36.2062L 45.4684,40.2585C 47.0192,39.3491 48.825,38.8277 50.7527,38.8277C 52.7807,38.8277 54.674,39.4047 56.2771,40.4037L 60.4745,36.2062C 60.7612,35.9195 61.226,35.9195 61.5126,36.2062C 61.7992,36.4929 61.7992,36.9577 61.5126,37.2443L 57.4798,41.2772C 59.7627,43.196 61.2138,46.073 61.2138,49.2886C 61.2138,50.1718 61.1043,51.0293 60.8983,51.8485C 58.1012,50.253 54.8634,49.3415 51.4126,49.3415C 47.4909,49.3415 43.8442,50.5188 40.8068,52.5396 Z M 64.4153,82.9913L 68.4742,87.0502C 69.2053,87.7813 69.2053,88.9668 68.4742,89.6979C 67.7429,90.429 66.5576,90.4288 65.8265,89.6978L 61.4963,85.3676C 58.817,87.1239 55.6469,88.1934 52.2365,88.3256L 52.2365,88.207C 51.9255,88.2229 51.6125,88.2309 51.2976,88.2309C 51.1307,88.2309 50.9643,88.2286 50.7984,88.2242L 50.7984,88.3233C 48.1994,88.2153 45.7434,87.5692 43.5384,86.4941C 42.8423,86.1646 42.1706,85.7921 41.5266,85.3801L 37.209,89.6979C 36.4776,90.429 35.2923,90.429 34.5612,89.6977C 33.8299,88.9667 33.8299,87.7813 34.5612,87.0502L 38.5793,83.032C 35.8224,80.3256 33.9254,76.7463 33.3359,72.7416L 27.7903,72.7416C 26.7562,72.7416 25.918,71.9035 25.918,70.8694C 25.918,69.8355 26.7562,68.9972 27.7903,68.9972L 33.1728,68.9972C 33.3746,65.5494 34.5385,62.36 36.3999,59.6937L 31.561,54.8547C 30.8298,54.1236 30.8298,52.9381 31.561,52.207C 32.2921,51.4758 33.4775,51.4758 34.2086,52.207L 38.8545,56.8528C 41.507,54.3555 44.911,52.6476 48.6913,52.1041C 49.3816,51.9966 50.0847,51.9279 50.7984,51.9003L 50.7984,51.9252C 50.9643,51.9207 51.1307,51.9184 51.2976,51.9184C 51.6125,51.9184 51.9255,51.9265 52.2365,51.9423L 52.2365,51.9003C 56.8332,52.0787 60.9931,53.9594 64.1036,56.9297L 68.8264,52.207C 69.5573,51.4758 70.743,51.4758 71.4739,52.207C 72.2052,52.9383 72.2052,54.1236 71.4741,54.8547L 66.5401,59.7887C 68.3634,62.4367 69.5047,65.5908 69.7104,68.9972L 75.2451,68.9972C 76.279,68.9972 77.1173,69.8355 77.1173,70.8694C 77.1173,71.9034 76.279,72.7417 75.2451,72.7417L 69.5558,72.7417C 68.9815,76.7181 67.1234,80.2793 64.4153,82.9913 Z M 46.5273,82.808L 57.2263,82.808L 57.2263,80.7372L 53.0848,80.7372L 53.0848,57.8726L 46.1822,60.4611L 46.1822,62.5318L 50.6689,60.7361L 50.6689,80.7372L 46.5273,80.7372L 46.5273,82.808 Z "/>
	</g>
</svg>
