<?xml version="1.0" encoding="utf-8"?>
<!DOCTYPE svg PUBLIC "-//W3C//DTD SVG 1.1//EN" "http://www.w3.org/Graphics/SVG/1.1/DTD/svg11.dtd">
<svg xmlns="http://www.w3.org/2000/svg" xmlns:xlink="http://www.w3.org/1999/xlink" version="1.1" baseProfile="full" width="128" height="128" viewBox="0 0 128.00 128.00" enable-background="new 0 0 128.00 128.00" xml:space="preserve">
	<g>
		<g>
			<ellipse fill="#FFFFFF" fill-opacity="0.701961" stroke-linejoin="round" stroke="#FFFFFF" stroke-opacity="1" cx="87.1479" cy="44.1125" rx="11.822" ry="11.822"/>
			<ellipse fill="none" stroke-linejoin="round" stroke="#FFFFFF" stroke-opacity="1" cx="87.1479" cy="44.1125" rx="4.53056" ry="11.822"/>
			<ellipse fill="none" stroke-linejoin="round" stroke="#FFFFFF" stroke-opacity="1" cx="87.1479" cy="44.1125" rx="9.06114" ry="11.822"/>
			<line fill="none" stroke-linejoin="round" stroke="#FFFFFF" stroke-opacity="1" x1="87.1479" y1="32.3399" x2="87.1479" y2="55.8849"/>
			<line fill="none" stroke-linejoin="round" stroke="#FFFFFF" stroke-opacity="1" x1="75.326" y1="44.1125" x2="98.9699" y2="44.1125"/>
		</g>
		<g>
			<ellipse fill="#FFFFFF" fill-opacity="0.701961" stroke-linejoin="round" stroke="#FFFFFF" stroke-opacity="1" cx="82.541" cy="87.3037" rx="8.40578" ry="8.40579"/>
			<path fill="none" stroke-linejoin="round" stroke="#FFFFFF" stroke-opacity="1" d="M 82.541,78.8979C 84.3201,78.8979 85.7623,82.6613 85.7623,87.3037C 85.7623,91.9461 84.3201,95.7095 82.541,95.7095C 80.7618,95.7095 79.3196,91.9461 79.3196,87.3037C 79.3196,82.6613 80.7618,78.8979 82.541,78.8979 Z "/>
			<ellipse fill="none" stroke-linejoin="round" stroke="#FFFFFF" stroke-opacity="1" cx="82.5411" cy="87.3037" rx="6.44275" ry="8.40579"/>
			<line fill="none" stroke-linejoin="round" stroke="#FFFFFF" stroke-opacity="1" x1="82.541" y1="78.933" x2="82.541" y2="95.6743"/>
			<line fill="none" stroke-linejoin="round" stroke="#FFFFFF" stroke-opacity="1" x1="74.1353" y1="87.3037" x2="90.9469" y2="87.3037"/>
		</g>
		<path fill="#FFFFFF" fill-opacity="1" fill-rule="evenodd" stroke-width="0.2" stroke-linejoin="round" d="M 43.4945,49.3365C 46.4454,47.3732 49.9882,46.2294 53.7982,46.2294C 57.1506,46.2294 60.2962,47.115 63.0135,48.6649C 63.2137,47.8692 63.3201,47.0361 63.3201,46.178C 63.3201,43.054 61.9104,40.2591 59.6925,38.3948L 63.6104,34.4769C 63.8888,34.1985 63.8888,33.7469 63.6104,33.4684C 63.3319,33.1899 62.8804,33.1899 62.6019,33.4684L 58.5241,37.5462C 56.9666,36.5758 55.1273,36.0152 53.1571,36.0152C 51.2843,36.0152 49.5299,36.5217 48.0233,37.4052L 44.0864,33.4684C 43.8078,33.1899 43.3563,33.1899 43.0779,33.4684C 42.7993,33.7469 42.7994,34.1985 43.0779,34.4769L 46.8274,38.2265C 44.4914,40.0885 42.9941,42.9584 42.9941,46.178C 42.9941,47.2807 43.1698,48.3423 43.4945,49.3365 Z "/>
		<path fill="#FFFFFF" fill-opacity="1" fill-rule="evenodd" stroke-width="0.2" stroke-linejoin="round" d="M 70.3738,82.8636C 71.0841,83.574 71.0841,84.7257 70.3738,85.436C 69.6633,86.1463 68.5118,86.1461 67.8015,85.4359L 64.2267,81.861C 61.3018,83.877 57.7566,85.0573 53.9356,85.0573C 50.0965,85.0573 46.5357,83.8657 43.6029,81.8323L 39.9993,85.436C 39.2888,86.1463 38.1373,86.1463 37.427,85.4359C 36.7166,84.7257 36.7166,83.574 37.427,82.8636L 40.8271,79.4634C 38.1477,76.6683 36.3536,73.018 35.8952,68.9628L 30.849,68.9628C 29.8443,68.9628 29.0301,68.1486 29.0301,67.1439C 29.0301,66.1395 29.8443,65.3251 30.849,65.3251L 35.8469,65.3251C 36.1357,61.9655 37.3394,58.8674 39.2078,56.281L 34.5122,51.5855C 33.8019,50.8752 33.8019,49.7235 34.5122,49.0132C 35.2225,48.3029 36.3742,48.3029 37.0845,49.0132L 41.626,53.5547C 42.7479,52.5194 44.0006,51.6239 45.3565,50.8955C 47.6985,49.603 50.3643,48.8253 53.2015,48.7153L 53.2015,48.7594C 53.445,48.7497 53.6898,48.7448 53.9356,48.7448C 54.1576,48.7448 54.3787,48.7488 54.5987,48.7567L 54.5987,48.7153C 56.5417,48.7907 58.4042,49.1792 60.1375,49.8316C 62.4063,50.6561 64.4643,51.9202 66.2083,53.5207L 70.716,49.0132C 71.4261,48.3029 72.578,48.3029 73.2881,49.0132C 73.9985,49.7237 73.9985,50.8752 73.2882,51.5855L 68.6338,56.2399C 70.519,58.8346 71.734,61.9477 72.0244,65.3251L 76.9518,65.3251C 77.9562,65.3251 78.7707,66.1395 78.7707,67.1439C 78.7707,68.1484 77.9562,68.9628 76.9518,68.9628L 71.9761,68.9628C 71.5157,73.0354 69.7081,76.6998 67.0095,79.4995L 70.3738,82.8636 Z M 49.1653,79.6343L 59.8643,79.6343L 59.8643,77.5636L 55.7227,77.5636L 55.7227,54.699L 48.8202,57.2874L 48.8202,59.3582L 53.3069,57.5624L 53.3069,77.5636L 49.1653,77.5636L 49.1653,79.6343 Z "/>
	</g>
</svg>
