<?xml version="1.0" encoding="utf-8"?>
<!DOCTYPE svg PUBLIC "-//W3C//DTD SVG 1.1//EN" "http://www.w3.org/Graphics/SVG/1.1/DTD/svg11.dtd">
<svg xmlns="http://www.w3.org/2000/svg" xmlns:xlink="http://www.w3.org/1999/xlink" version="1.1" baseProfile="full" width="128" height="128" viewBox="0 0 128.00 128.00" enable-background="new 0 0 128.00 128.00" xml:space="preserve">
	<g>
		<path fill="#FFFFFF" fill-opacity="1" stroke-width="0.2" stroke-linejoin="round" d="M 105.915,102.519L 36.6478,102.519L 71.2815,42.5314L 105.915,102.519 Z M 64.0938,77.6321L 61.3969,74.9352C 60.9794,74.5177 60.3025,74.5177 59.8849,74.9352C 59.4674,75.3527 59.4674,76.0297 59.8849,76.4471L 62.7024,79.2647C 61.6612,80.7769 61.0094,82.5781 60.892,84.5234L 57.7316,84.5234C 57.1412,84.5234 56.6625,85.0021 56.6625,85.5925C 56.6625,86.183 57.1412,86.6617 57.7316,86.6617L 60.9803,86.6617C 61.3083,88.9315 62.3692,90.9642 63.918,92.5128L 61.5982,94.8326C 61.1807,95.2501 61.1807,95.9271 61.5982,96.3446C 62.0157,96.7621 62.6927,96.7621 63.1102,96.3447L 65.5863,93.8685C 67.1138,94.8679 68.9218,95.4787 70.8705,95.5596L 70.8705,74.76C 68.2456,74.8618 65.87,75.9359 64.0938,77.6321 Z M 81.5822,86.6616L 84.8311,86.6616C 85.4215,86.6616 85.9002,86.1829 85.9002,85.5925C 85.9002,85.002 85.4215,84.5234 84.8311,84.5234L 81.6704,84.5234C 81.553,82.5781 80.9012,80.777 79.86,79.2648L 82.6776,76.4471C 83.0951,76.0297 83.0951,75.3527 82.6776,74.9352C 82.2601,74.5176 81.5831,74.5176 81.1656,74.9352L 78.4686,77.6321C 76.6924,75.9359 74.3169,74.8619 71.6919,74.76L 71.6919,95.5609C 73.6395,95.4854 75.4496,94.8747 76.9797,93.8718L 79.4525,96.3446C 79.87,96.7621 80.5469,96.7621 80.9645,96.3446C 81.382,95.9271 81.382,95.2501 80.9645,94.8326L 78.6466,92.5148C 80.1931,90.966 81.2542,88.9324 81.5822,86.6616 Z M 71.2968,73.8026C 73.2673,73.8026 75.1163,74.3232 76.7136,75.2343C 76.8313,74.7665 76.8938,74.2768 76.8938,73.7725C 76.8938,71.9362 76.0652,70.2933 74.7615,69.1974L 77.0644,66.8945C 77.2281,66.7308 77.2281,66.4654 77.0645,66.3017C 76.9008,66.138 76.6353,66.138 76.4716,66.3017L 74.0747,68.6987C 73.1592,68.1282 72.078,67.7986 70.92,67.7986C 69.8191,67.7986 68.7878,68.0964 67.9023,68.6158L 65.5881,66.3017C 65.4244,66.1379 65.159,66.138 64.9953,66.3017C 64.8316,66.4654 64.8316,66.7308 64.9953,66.8945L 67.1993,69.0985C 65.8262,70.193 64.9461,71.88 64.9461,73.7725C 64.9461,74.4206 65.0493,75.0446 65.2402,75.629C 66.9747,74.475 69.0573,73.8026 71.2968,73.8026 Z M 76.3558,80.1643C 77.4554,80.1643 78.3469,81.0558 78.3469,82.1554C 78.3469,83.2551 77.4555,84.1465 76.3558,84.1465C 75.2562,84.1465 74.3648,83.2551 74.3648,82.1554C 74.3648,81.0558 75.2562,80.1643 76.3558,80.1643 Z M 74.763,87.1225C 75.8626,87.1225 76.7541,88.014 76.7541,89.1136C 76.7541,90.2133 75.8626,91.1047 74.763,91.1047C 73.6634,91.1047 72.772,90.2133 72.772,89.1136C 72.772,88.014 73.6634,87.1225 74.763,87.1225 Z M 65.6042,83.4128C 66.7038,83.4128 67.5952,84.3043 67.5952,85.4039C 67.5952,86.5036 66.7038,87.395 65.6042,87.395C 64.5046,87.395 63.6131,86.5036 63.6131,85.4039C 63.6131,84.3043 64.5046,83.4128 65.6042,83.4128 Z "/>
		<path fill="#FFFFFF" fill-opacity="1" stroke-width="0.2" stroke-linejoin="round" d="M 56.3254,60.6285L 56.1458,60.9357C 56.2048,60.8933 56.2633,60.8506 56.2828,60.7857 Z "/>
		<path fill="#FFFFFF" fill-opacity="1" stroke-width="0.2" stroke-linejoin="round" d="M 56.1458,60.9357C 56.0859,60.9787 56.0255,61.0215 55.9795,61.2201L 56.1458,60.9357 Z "/>
		<path fill="#FFFFFF" fill-opacity="0.701961" stroke-width="0.2" stroke-linejoin="round" d="M 42.4773,77.8235C 42.0049,78.9385 41.9993,80.2153 42.0106,81.4262L 42.0444,85.0587L 50.1607,71.1743C 48.3572,72.4038 46.3574,73.42 44.6871,74.8173C 43.7332,75.6154 42.9624,76.6783 42.4773,77.8235 Z "/>
		<path fill="#FFFFFF" fill-opacity="0.701961" stroke-width="0.2" stroke-linejoin="round" d="M 56.3254,60.6285L 60.2706,53.8795C 60.2564,52.7541 60.1985,51.6331 59.9816,50.5328C 59.719,49.201 60.1677,47.786 59.8685,46.4619C 59.3667,44.241 59.5522,41.9045 59.0817,39.6768C 58.9048,38.8398 59.1219,37.9508 58.945,37.1137C 58.4369,34.7085 58.3598,32.2311 57.9885,29.801L 57.5739,27.087L 57.4702,26.4085L 57.2982,25.9562C 57.2408,25.8055 57.2711,25.575 57.1263,25.5039C 56.9012,25.3933 56.6248,25.5027 56.3741,25.502L 55.6219,25.5003L 51.8609,25.4913L 42.0822,25.4679L 30.7992,25.441L 27.0382,25.4321L 26.286,25.4303C 26.0352,25.4297 25.7663,25.3349 25.5338,25.4285C 24.8726,25.6946 25.0601,26.7747 24.8789,27.464L 24.3841,29.8764C 24.2244,30.5624 24.4557,31.3028 24.2899,31.9873L 23.7716,34.7012C 23.6038,35.385 23.87,36.1299 23.6961,36.8121L 23.4653,37.1137C 23.2483,37.9404 23.6241,38.8523 23.3993,39.6768L 23.159,39.9785C 22.9287,40.8535 23.3028,41.8133 23.0884,42.6924L 22.8669,42.994C 22.6061,44.017 23.0333,45.1348 22.7821,46.1602C 22.4344,47.5796 22.7768,49.104 22.4711,50.5328C 22.1476,52.045 22.2247,53.6176 22.1951,55.1638L 22.1261,58.7717C 22.1123,59.4933 21.9104,60.2361 22.0847,60.9364C 22.1173,61.067 22.3119,61.1099 22.3534,61.238C 22.5235,61.7641 22.3011,62.3488 22.3769,62.8965C 22.5044,63.8181 22.745,64.724 23.0271,65.6105C 23.6279,67.4989 24.5125,69.3518 25.7647,70.8878C 27.5685,73.1004 30.0938,74.6345 32.4743,76.2104C 33.6565,76.9931 35.0826,77.6483 35.7867,78.8788C 35.8615,79.0098 35.7286,79.1964 35.796,79.3312C 35.8904,79.52 36.1643,79.5861 36.239,79.7836C 36.4992,80.4722 36.2517,81.2558 36.2581,81.992L 36.2963,86.4088L 36.3346,90.8257C 36.341,91.5706 36.5654,92.4714 36.0929,93.0472C 35.9432,93.2297 35.6741,93.265 35.4647,93.3739C 34.7011,93.7709 33.9015,94.1089 33.0773,94.3571L 32.5496,94.4042L 32.0219,94.4513C 29.9364,95.103 27.6959,95.2785 25.6892,96.1428C 24.7431,96.5504 23.7638,97.064 23.1308,97.8767C 23.0689,97.9561 23.1725,98.0946 23.1166,98.1783C 22.8404,98.5926 22.3925,98.9119 22.2355,99.3845C 21.982,100.148 22.1758,100.993 22.1461,101.797L 22.2214,101.872L 22.4146,102.174C 22.4824,102.296 22.4689,102.498 22.5984,102.551C 23.2886,102.832 24.089,102.554 24.8343,102.555L 29.3061,102.564L 32.8081,102.571L 32.062,102.135L 33.8969,98.9964L 30.8157,99.0076L 30.7402,98.9322C 31.9716,98.6599 33.2125,98.4101 34.4305,98.0835L 40.2524,88.1243L 40.2394,86.8399L 40.1883,81.7739C 40.1747,80.425 40.317,78.9844 39.7775,77.748C 37.9185,73.4883 32.1464,72.2468 29.2325,68.6261C 27.0932,65.9679 26.2121,62.3086 26.0378,58.901L 25.9154,58.8256C 26.0857,55.8103 26.078,52.7807 26.4101,49.779C 26.5262,48.7297 26.1998,47.6315 26.476,46.6126L 26.7163,46.3111C 26.9849,45.3423 26.4812,44.2591 26.7682,43.2956L 27.0274,42.994C 27.2029,42.3777 27.0462,41.7124 27.0556,41.0716C 27.0588,40.858 27.0046,40.6357 27.0651,40.4308C 27.1032,40.3017 27.298,40.259 27.3336,40.1292C 27.5202,39.4508 27.2657,38.7161 27.3571,38.0183L 27.5008,37.566L 27.6446,37.1137C 27.8284,35.7129 27.7151,34.2711 28.0215,32.8919C 28.2971,31.6523 28.4837,30.3892 28.5729,29.1225L 34.9579,29.0741L 37.0864,29.0579L 37.7959,29.0525C 38.0323,29.0508 38.3052,28.9209 38.5052,29.0471C 38.6944,29.1666 38.6793,29.4593 38.7662,29.6653L 39.0273,30.2835L 40.0931,32.9673L 41.0072,35.0029L 41.2169,35.5305C 41.2868,35.7065 41.4599,35.8719 41.4265,36.0583C 41.2855,36.8454 40.4998,37.3697 39.9423,37.943C 39.4447,38.4548 39.0825,39.0871 38.5877,39.6015C 37.5971,40.6316 36.841,41.8687 35.8713,42.9186C 35.3228,43.5125 34.4902,44.5487 34.995,45.1803C 35.4894,45.799 36.3036,46.0755 36.9221,46.5703L 41.5208,50.3067C 42.5336,51.1169 43.6888,51.7928 44.5128,52.7945C 44.384,52.9453 44.2066,53.0655 44.1264,53.2468C 44.0445,53.4323 44.1219,53.6618 44.0463,53.8499C 43.7946,54.4763 43.3709,55.0211 43.0882,55.6341L 40.6656,60.8045L 39.0471,64.2285C 38.7546,64.8457 38.1009,65.6888 38.5382,66.2136C 38.6291,66.3227 38.8294,66.3502 38.9576,66.2891C 39.1821,66.1818 39.3315,65.9568 39.4854,65.7613L 39.669,65.3843L 40.1193,64.7058L 42.3705,61.3134C 43.5411,59.5493 44.7408,57.7999 45.7897,55.9608C 46.274,55.1116 46.9352,54.3747 47.4576,53.5484L 47.851,52.8699C 47.9822,52.6437 48.2072,52.4502 48.2444,52.1914C 48.3435,51.5042 47.382,51.1001 46.8985,50.602L 45.064,48.9167C 43.3004,47.4386 41.7535,45.7177 40.1686,44.0494L 45.1395,39.9031L 46.9488,38.3953C 47.0561,38.3058 47.243,38.3242 47.3258,38.2115C 47.6465,37.7749 47.4849,37.1015 47.3181,36.586L 46.659,34.5505L 44.9133,29.1225L 50.693,29.0723L 52.8605,29.0534C 53.1013,29.0513 53.3833,28.9124 53.5829,29.0471C 54.1115,29.4038 53.8814,30.2949 53.9096,30.9319C 53.944,31.7083 54.1714,32.4676 54.2112,33.2438C 54.3195,35.3544 54.7513,37.4364 55.0671,39.5262C 55.1724,40.2222 54.9577,40.9541 55.1284,41.637L 55.3592,41.9386C 55.5818,42.8158 55.2076,43.7754 55.43,44.6526L 55.6609,44.9541C 55.9274,45.9755 55.4506,47.1016 55.7268,48.1204L 55.9671,48.422C 56.3503,49.8804 55.6451,51.4869 56.0283,52.9453L 56.2686,53.2468C 56.6031,54.6286 56.2875,56.09 56.297,57.5116C 56.3038,58.5485 56.5679,59.627 56.3254,60.6285 Z "/>
	</g>
</svg>
