<!DOCTYPE svg PUBLIC "-//W3C//DTD SVG 1.1//EN" "http://www.w3.org/Graphics/SVG/1.1/DTD/svg11.dtd">
<svg xmlns="http://www.w3.org/2000/svg" baseProfile="full" viewBox="0 0 331.71 61.19">
  <path fill="#4C8BF5" d="M30.5623 19.0488c6.2368 0 11.2927 5.0559 11.2927 11.2927 0 6.237-5.0559 11.2929-11.2927 11.2929s-11.2928-5.0559-11.2928-11.2929c0-6.2368 5.056-11.2927 11.2928-11.2927z"/>
  <path fill="#A2C3FA" d="M61.3876 30.342c0-3.9999-.7619-7.8218-2.1484-11.3287H37.8766c9.3598 6.8503 5.4938 16.2779 5.4938 16.2779l-14.9385 25.803c.7041.0481 1.4147.0725 2.131.0725 17.024 0 30.8247-13.8006 30.8247-30.8247z"/>
  <path fill="#4373D9" d="M14.9218 3.85903C11.4506 5.8464 8.51221 8.40645 6.15775 11.3521L16.7716 29.8914c1.2946-11.5263 11.397-12.8553 11.397-12.8553l29.8151.1442c-.3081-.6349-.6399-1.2637-.9959-1.8854C48.5296.520712 29.696-4.59922 14.9218 3.85903z"/>
  <path fill="#689EF7" d="M15.2875 57.4195c3.4709 1.9882 7.1659 3.2268 10.8981 3.7668L36.804 42.6496c-10.5965 4.7167-16.8554-3.324-16.8554-3.324L4.98407 13.5376c-.39172.5871-.76611 1.1915-1.12213 1.8131C-4.59998 30.1228.515442 48.9577 15.2875 57.4195z"/>
  <path fill="#4373D9" fill-rule="evenodd" d="M298.136 38.4342l-.379-21.8652h6.9v27.575h-9.92l-6.884-22.627h-.154l.385 22.627h-6.845V16.569h10.338l6.408 21.8652h.151zM172.772 19.1405l-3.813 25.2894h-7.528l5.162-27.8591h12.4l5.134 27.8591h-7.482l-3.717-25.2894h-.156zm32.476 18.7312l3.443-21.302h11.358l.618 27.8592h-6.973l-.18-25.0531-.151.0069-4.653 25.0462h-7.064l-4.659-25.0531h-.156l-.176 25.0531h-6.965l.616-27.8592h11.362l3.428 21.302h.152zm-55.543-1.3077c.274.6729.183 1.5409.055 2.0666-.228.9091-.854 1.8575-2.712 1.8575-1.739 0-2.803-.9963-2.803-2.5133l-.005-2.7051h-7.471v2.1555c0 6.2116 4.891 8.0811 10.121 8.0811 5.049 0 9.188-1.712 9.854-6.3587.34-2.4106.089-3.9892-.028-4.5781-1.181-5.8365-11.752-7.5642-12.541-10.8358-.133-.5702-.103-1.1369-.032-1.4554.202-.8954.806-1.8714 2.547-1.8714 1.635 0 2.589 1.0068 2.589 2.522v1.719h6.954v-1.9484c0-6.0711-5.451-7.0196-9.396-7.0196-4.953 0-8.995 1.6418-9.74 6.1892-.2 1.2277-.229 2.3422.071 3.7495 1.205 5.6928 11.102 7.3432 12.537 10.9454zm90.582-.0551c.261.6677.182 1.5237.053 2.0477-.224.9177-.851 1.8354-2.689 1.8354-1.73 0-2.772-.9777-2.772-2.486l-.004-2.6795h-7.399l-.005 2.1299c0 6.1567 4.845 7.999 10.031 7.999 4.989 0 9.091-1.6865 9.745-6.2903.339-2.3833.089-3.9464-.027-4.5371-1.168-5.7732-11.636-7.487-12.408-10.7246-.137-.5581-.099-1.1197-.036-1.4312.199-.8904.794-1.8577 2.52-1.8577 1.618 0 2.563.9964 2.563 2.4859v1.7071h6.885v-1.9228c0-6.0093-5.4-6.9459-9.297-6.9459-4.907 0-8.913 1.6042-9.644 6.1173-.204 1.219-.235 2.3233.061 3.7135 1.199 5.6414 10.999 7.2765 12.423 10.8393zm23.383 3.7327c1.935 0 2.536-1.3149 2.674-2.0082.06-.3014.07-.7055.067-1.065V16.5651h7.064v19.9665c.005.5152-.048 1.5648-.077 1.8404-.486 5.1946-4.604 6.874-9.728 6.874-5.121 0-9.237-1.6794-9.718-6.874-.022-.2756-.079-1.3252-.067-1.8404V16.5651h7.044v20.6033c-.005.3595.008.7636.067 1.065.14.6933.741 2.0082 2.674 2.0082zm58.124-.2842c2.014 0 2.719-1.2704 2.849-2.0134.053-.3167.074-.7071.063-1.0615v-4.0388h-2.852v-4.0748h9.858v7.475c-.003.5222-.01.9091-.087 1.8388-.464 5.0695-4.871 6.8843-9.803 6.8843-4.938 0-9.34-1.8148-9.797-6.8843-.081-.9297-.094-1.3166-.098-1.8388l.004-11.721c0-.5017.06-1.3765.118-1.8234.618-5.227 4.835-6.8861 9.776-6.8861 4.936 0 9.269 1.6454 9.783 6.8861.08.868.051 1.8234.055 1.8234v.9262h-7.02v-1.5649s-.007-.6609-.091-1.0478c-.126-.6129-.654-2.0288-2.785-2.0288-2.021 0-2.62 1.3407-2.774 2.0288-.08.3527-.113.8493-.113 1.3047v12.7414c-.003.3544.014.7448.063 1.0615.134.743.836 2.0134 2.851 2.0134z"/>
  <path fill="#4373D9" d="M107.804 19.5038l4.436 4.4357-6.653 6.6536 6.653 6.6536-4.436 4.4356-6.653-6.6535-6.6537 6.6535-4.4357-4.4358 6.6536-6.6534-6.6536-6.6536 4.4357-4.4357 6.6537 6.6536 6.653-6.6536z"/>
</svg>
